PathFileType	4	(X/Y/Z)	24_1_tpose_p1_0-229.trc
DataRate	CameraRate	NumFrames	NumMarkers	Units	OrigDataRate	OrigDataStartFrame	OrigNumFrames
60.0	60.0	7	27	m	60.0	201	230
Frame#	Time	RHip			RKnee			RAnkle			RBigToe			RSmallToe			RHeel			LHip			LKnee			LAnkle			LBigToe			LSmallToe			LHeel			Neck			Head			Nose			RShoulder			RElbow			RWrist			RThumb			RIndex			RPinky			LShoulder			LElbow			LWrist			LThumb			LIndex			LPinky			
		X1	Y1	Z1	X2	Y2	Z2	X3	Y3	Z3	X4	Y4	Z4	X5	Y5	Z5	X6	Y6	Z6	X7	Y7	Z7	X8	Y8	Z8	X9	Y9	Z9	X10	Y10	Z10	X11	Y11	Z11	X12	Y12	Z12	X13	Y13	Z13	X14	Y14	Z14	X15	Y15	Z15	X16	Y16	Z16	X17	Y17	Z17	X18	Y18	Z18	X19	Y19	Z19	X20	Y20	Z20	X21	Y21	Z21	X22	Y22	Z22	X23	Y23	Z23	X24	Y24	Z24	X25	Y25	Z25	X26	Y26	Z26	X27	Y27	Z27	
201	3.35	0.444027336771075	0.49012590785741644	0.7613878828668681	0.4537511534591449	0.5969706808111485	1.2466921509067108	0.43901495143367597	0.6901990320783972	1.7023691413649602	0.404684303420486	0.578478663518958	1.7583713894597859	0.4793325858568238	0.5945301036697688	1.7582814564819969	0.42411874645328645	0.7253381376896887	1.7489454381930332	0.23182826944673712	0.4766829286666874	0.7734133291635523	0.20528588403759843	0.5861545299838962	1.2600932569277585	0.20271305119574357	0.6598784287481186	1.7082019806519895	0.25014471586624726	0.46196835015006943	1.7067597871535998	0.19305673263039047	0.505571607638818	1.7180620565665257	0.20218550689168843	0.730736313808521	1.7712649054081995	0.33526239269274233	0.4432211562625915	0.24714071100854654	0.34160796672605076	0.35074370540554634	0.022869278049933904	0.33187710871372694	0.2947836728638149	0.14051742547049237	0.4966794878109684	0.47057488035001505	0.29749703188106197	0.7507204657025178	0.5002592102317335	0.28917383048974876	0.9769072395024377	0.5462128726710416	0.2718624499291875	1.1126097971081226	0.4961891211049899	0.30447414888605	1.1460626539252636	0.5155968990067422	0.30971210089742424	1.1067597656751382	0.5603586315396114	0.32157445008878677	0.17928421542557774	0.453915285385053	0.29442052205965313	-0.06477521463215388	0.4059629683748302	0.298817228779871	-0.293108790946313	0.33034750198785234	0.29902397745784487	-0.38332645931690634	0.293405544776387	0.32394018089944265	-0.42368410273330737	0.32399390029222963	0.2876478623392262	-0.4275928876872605	0.3766463998749815	0.28299875974822297
202	3.3666666666666667	0.4465110497544834	0.5025492055085228	0.7632779018110348	0.4537510988508365	0.5969551746885008	1.2467006255669688	0.43897938863522096	0.6902406213037895	1.7023010137991603	0.40485479062277957	0.5787802456001254	1.7586138072538624	0.47896731917352814	0.597140116507237	1.7544056361623759	0.4240189733781936	0.7251800375275107	1.748922130937976	0.23186071813198386	0.4766466914959314	0.7734347471518043	0.20525995691410787	0.5862502763600477	1.2601886428691125	0.2033060720748876	0.6584260706870129	1.7117399256276653	0.25221184286926784	0.475377553132537	1.7128845572009088	0.18575244536450272	0.5171043153719702	1.7194675713647116	0.20149417398765473	0.7280073730053124	1.7645970367893633	0.3354510127708372	0.4428857874135232	0.2438344857208928	0.3415872630644308	0.35073788539808903	0.022815221498097876	0.3318378186140988	0.2949026298958051	0.14050691883794666	0.49672366938455076	0.4706871107535482	0.29751975580475165	0.7505500949352633	0.5007092446096413	0.2892433775305736	0.9814525071294573	0.5466809998065418	0.2717059281207445	1.1166692944269385	0.4947649113981281	0.304631824631618	1.146223627977809	0.5183639544274478	0.31047861484654454	1.1069219855106	0.5623059587850314	0.3223926667766531	0.17933936401001055	0.45536735599748057	0.2977035798229727	-0.06822763024653246	0.40274133945219237	0.2989369060133113	-0.3003726464750169	0.34089819111317377	0.2993237866977659	-0.38006860460887487	0.2959606532541135	0.3238942978665222	-0.42387151788568045	0.3246705136989705	0.28793599866702246	-0.42847757434620876	0.37918595756770235	0.2824079195816653
203	3.3833333333333333	0.44399068605355907	0.4902518564987225	0.7615129246133486	0.4536823231625939	0.59712740378641	1.2467689635151369	0.43894239828088394	0.6901572605687516	1.7023492117549428	0.40543791599606066	0.5764364135640186	1.762939819722176	0.4795231587247494	0.594592954646436	1.7587795382122346	0.42400759305907876	0.7250039046639472	1.7489595431812148	0.23180002677254333	0.47686365375876666	0.7734849898043871	0.20477447256142686	0.5874261148688359	1.2560084048630737	0.20331446538060638	0.658425195052851	1.7116775200834353	0.25090105885097486	0.4645021751142177	1.712421906834473	0.18743111369207377	0.5188256155599662	1.7208487318730736	0.200498505455189	0.7147945232122566	1.7639846727678612	0.3354245489039573	0.4428976302488179	0.24380041986644893	0.34837741557560065	0.3500509098069602	0.02271665830996032	0.3317864965557235	0.2949829345687183	0.14042156878567827	0.4966487195154306	0.4708343575889695	0.2975111186967129	0.7504757407735055	0.5004122876615721	0.28923824690837663	0.9814133961230517	0.5463220096187908	0.2717040877359551	1.1167559514215857	0.49439722825195775	0.30485164469443826	1.1461298525256371	0.5182699577211639	0.3104882439159343	1.1068183538790706	0.5623390048677365	0.32234789857375973	0.17925224536974857	0.4536956147203393	0.29443725379791263	-0.0752736587748741	0.40048834257091853	0.29583461942009853	-0.3008346566002924	0.34247076939886856	0.3028866996392763	-0.37820188768899893	0.2822586898185809	0.32781364198638313	-0.42316904926997495	0.3132137859277885	0.29840384402808035	-0.4263182618365055	0.3534406351914469	0.2754273838938576
204	3.4	0.4460068914053781	0.5036300307243867	0.7595721372185825	0.4537016658705335	0.5972484406846464	1.2467112592195613	0.4439321564978516	0.6948702767780562	1.708798375537177	0.4101189686847467	0.5784627244072608	1.7630664585059037	0.47959407098624657	0.5958359710762005	1.7589220859493102	0.4240824747636271	0.7249688210741271	1.7495644048330687	0.2355999898040016	0.478192195203082	0.7734127565458309	0.20474633406103207	0.5872383340861761	1.255714448843961	0.2027578283400451	0.6597603208715925	1.7082595343583677	0.2510830476636666	0.46429034406061526	1.7123523992873648	0.1931966071833093	0.5054602191501051	1.717768778409353	0.20055954555964847	0.7143812515604712	1.763730277637693	0.33540493729830223	0.44286095188241886	0.2438031672149489	0.3435357946021776	0.36147432395034707	0.021749497680455306	0.3280384584004103	0.29143296853466255	0.13745384027879515	0.4970088739695334	0.4722153725279328	0.3006893660031562	0.742243020109161	0.5136185018943825	0.2898329345294556	0.9788605642622004	0.5610244768495537	0.27208265981902274	1.1166538822500318	0.4950661208447248	0.3053957563253662	1.1458636144328582	0.520002686992283	0.31071557484955964	1.106547912436657	0.5637320353318557	0.31964057669147683	0.1792747505613802	0.4553687624881379	0.29771140246792427	-0.0755150894061461	0.40041221728617044	0.2958932330580859	-0.30284487854657455	0.32483615758896933	0.299170668290561	-0.37854707263191467	0.2827888677796447	0.32418227313329495	-0.4222703597048999	0.31064921322111316	0.29480371188793514	-0.42589229642813553	0.3529248703325933	0.2832160765951759
205	3.4166666666666665	0.44605217624324367	0.5037517746568836	0.7595372504963765	0.45373666445456756	0.59716990357289	1.2466205557658265	0.4430158840585187	0.692191622896791	1.702862348426407	0.40486108270716564	0.5787012584189366	1.7587900745158545	0.47955907005050996	0.5951756805579453	1.7585402975317215	0.42851706381809324	0.7271856262834403	1.7495517567444119	0.23183671579097084	0.47688720879923646	0.7734595756008086	0.2047367618798822	0.5873660296446765	1.2558447023277948	0.20277714500564406	0.6597265020079539	1.7082069591788402	0.25320047908772586	0.47771562062669093	1.7184193553398146	0.19445988640821962	0.5045221449143675	1.713488373966055	0.20056425258446758	0.7143328390158484	1.7636252902226812	0.3334271200760687	0.43087122240314496	0.24406664390554608	0.3435371353576594	0.3614741078625089	0.021739385568170934	0.32806388496846783	0.29147642907103555	0.1374581013424768	0.496820900044203	0.4724207627583897	0.29727437798694534	0.7457328238027727	0.49994995606040193	0.2895158941280038	0.9788643954185148	0.5610108238698527	0.27202424815672344	1.116666601235208	0.495092500089244	0.30516378324787563	1.1406681240794232	0.5228891457318956	0.31097778525840863	1.104328854558995	0.5788856270560482	0.3164451642697193	0.1792656880986263	0.4553620208771977	0.2977209986844162	-0.07537610644149138	0.39988888868266276	0.29587875267470215	-0.2958934837165429	0.316155366611985	0.30222820519355703	-0.3736998106779421	0.28823000585507297	0.3308419904009692	-0.4233933045512298	0.3234312750909268	0.29130157954482233	-0.42640165651655004	0.36330070994406716	0.28014128079701983
206	3.433333333333333	0.44646710577838183	0.5025594293997334	0.7633660875440342	0.4537634961368284	0.5970393280318196	1.2466413790450857	0.4429347045947497	0.6923380204291024	1.7026161390256656	0.4048329860026362	0.5783521245812304	1.7586103198586145	0.47953170965475217	0.594614578707885	1.7584087296013835	0.4277832476000626	0.7291243446496334	1.7458395578796602	0.23182748937021264	0.47655234463524637	0.7734659932193536	0.20476055043868288	0.5872360344629513	1.2558168735373108	0.20275194739946634	0.6597025296971643	1.7082205989385317	0.2531410528468353	0.47766037751771023	1.7183868114628664	0.19439656874921193	0.5044942060002781	1.713572832630808	0.19993000028408894	0.7114841157236919	1.7572264373935635	0.3388510557845593	0.41874686811304446	0.24407303218820192	0.34840292302931825	0.3501480811666469	0.0227246360585338	0.33186223395348285	0.2949859589320312	0.14033389064907564	0.4971280167404566	0.47188600861495833	0.3007239264336666	0.7458032959059041	0.4996079197355044	0.28939219275332423	0.9813456469955837	0.5463368763911619	0.27173634744046543	1.1166826587549326	0.49504974822525766	0.30528946131315304	1.1467239390040052	0.50797914783102	0.31046051105460304	1.105887298208895	0.5638234584129136	0.3158343827410741	0.17929066894116583	0.45523420883539795	0.29769040047156503	-0.06855320434197858	0.3884283931202209	0.29561137013803596	-0.29539445766484385	0.31426201128472875	0.29858163509806507	-0.37346542952304235	0.28796465524357057	0.3311226629061712	-0.4222919782448734	0.31123368811657764	0.2947592164370998	-0.42630778622206755	0.36319742154526247	0.27998115762943837
207	3.45	0.4469058147564735	0.5046845138844351	0.7675648602869717	0.4537868741439218	0.5969818458567723	1.2466341528731009	0.44298621514791275	0.6921780314678236	1.702649518518013	0.4048678551704495	0.5783368155156094	1.758782325960026	0.4795694457000227	0.5945901285208253	1.7585340717280376	0.42783368026480595	0.7288933052945158	1.7456887327861286	0.2318174154752679	0.47662264677063415	0.7734822034691902	0.20531699833254108	0.5860942378881066	1.2598881189788333	0.2033370102794391	0.6582291563664203	1.7117113550085241	0.2524119324127885	0.4750429542113282	1.712642079926183	0.1944986654834594	0.5043605127753298	1.7134492376852875	0.19979180905376592	0.711754583917378	1.7570567113818747	0.3408707744190065	0.4306209979083733	0.2438234786496506	0.34352818854007594	0.36140447461084496	0.021898251104783457	0.33185761967082444	0.2948823213662238	0.14037270281988237	0.49716798738362206	0.4718711015809093	0.3007408050577219	0.745821764732898	0.4997880119121293	0.28942353671318666	0.9789744204889799	0.5611042069926698	0.2720513463216934	1.1167121379949967	0.49551598579727535	0.3053706557965922	1.1462661269026535	0.520852411450794	0.31095004727447423	1.104339532153585	0.5795140486199957	0.3165138360589833	0.17927610865639232	0.45518143736440264	0.2977284678381711	-0.06849020762617226	0.3879679500798947	0.29555313468672373	-0.2923205542229999	0.31741458320180393	0.29846563648029373	-0.3733473449474054	0.28783890702879594	0.33117990249184975	-0.4236401315524694	0.32391757871105137	0.29113496006487805	-0.4248904043117215	0.380296233120527	0.27983885226318833
